<?xml version="1.0" encoding="utf-8"?>
<!-- Generator: Adobe Illustrator 22.0.1, SVG Export Plug-In . SVG Version: 6.00 Build 0)  -->
<svg version="1.1" xmlns="http://www.w3.org/2000/svg" xmlns:xlink="http://www.w3.org/1999/xlink" x="0px" y="0px"
	 viewBox="0 0 271.1 46.2" style="enable-background:new 0 0 271.1 46.2;" xml:space="preserve">
<style type="text/css">
	.st0{fill:#AEB0B2;}
	.st1{clip-path:url(#SVGID_2_);fill:#FFFFFF;}
	.st2{clip-path:url(#SVGID_4_);fill:#FFFFFF;}
	.st3{clip-path:url(#SVGID_6_);fill:#FFFFFF;}
	.st4{clip-path:url(#SVGID_8_);}
	.st5{fill:#E4E4E2;}
	.st6{opacity:0.5;clip-path:url(#SVGID_8_);fill:#0034D6;}
	.st7{opacity:0.2;clip-path:url(#SVGID_8_);}
	.st8{clip-path:url(#SVGID_12_);}
	.st9{clip-path:url(#SVGID_14_);}
	.st10{clip-path:url(#SVGID_16_);}
	.st11{fill:none;stroke:#FFFFFF;stroke-linecap:round;stroke-linejoin:round;stroke-miterlimit:10;}
	.st12{clip-path:url(#SVGID_18_);}
	.st13{clip-path:url(#SVGID_20_);}
	.st14{clip-path:url(#SVGID_22_);}
	.st15{clip-path:url(#SVGID_24_);}
	.st16{clip-path:url(#SVGID_26_);}
	.st17{clip-path:url(#SVGID_28_);}
	.st18{clip-path:url(#SVGID_30_);}
	.st19{clip-path:url(#SVGID_32_);}
	.st20{clip-path:url(#SVGID_34_);}
	.st21{clip-path:url(#SVGID_36_);}
	.st22{clip-path:url(#SVGID_38_);}
	.st23{clip-path:url(#SVGID_40_);}
	.st24{clip-path:url(#SVGID_42_);}
	.st25{clip-path:url(#SVGID_44_);}
	.st26{clip-path:url(#SVGID_46_);}
	.st27{clip-path:url(#SVGID_48_);}
	.st28{clip-path:url(#SVGID_50_);}
	.st29{clip-path:url(#SVGID_52_);}
	.st30{clip-path:url(#SVGID_54_);}
	.st31{clip-path:url(#SVGID_56_);}
	.st32{clip-path:url(#SVGID_58_);}
	.st33{clip-path:url(#SVGID_60_);}
	.st34{clip-path:url(#SVGID_62_);}
	.st35{clip-path:url(#SVGID_64_);}
	.st36{clip-path:url(#SVGID_66_);}
	.st37{clip-path:url(#SVGID_68_);}
	.st38{clip-path:url(#SVGID_70_);}
	.st39{clip-path:url(#SVGID_72_);}
	.st40{clip-path:url(#SVGID_74_);}
	.st41{clip-path:url(#SVGID_76_);}
	.st42{clip-path:url(#SVGID_78_);}
	.st43{clip-path:url(#SVGID_80_);}
	.st44{clip-path:url(#SVGID_82_);}
	.st45{clip-path:url(#SVGID_84_);}
	.st46{clip-path:url(#SVGID_86_);}
	.st47{clip-path:url(#SVGID_88_);}
	.st48{fill:#ECEAEB;}
	.st49{fill:#F3F4F6;}
	.st50{opacity:0.7;}
	.st51{fill:#FF9D00;}
	.st52{fill:#FFA829;}
	.st53{clip-path:url(#SVGID_92_);}
	.st54{clip-path:url(#SVGID_94_);}
	.st55{fill:url(#SVGID_97_);}
	.st56{opacity:0.4;fill:none;stroke:#FFFFFF;stroke-width:2;stroke-miterlimit:10;}
	.st57{fill:#414042;}
	.st58{opacity:0.6;}
	.st59{fill:#808080;}
	.st60{opacity:0.5;}
	.st61{fill:#FFFFFF;}
	.st62{opacity:0.4;fill:none;stroke:#FFFFFF;stroke-miterlimit:10;}
	.st63{clip-path:url(#SVGID_101_);}
	.st64{fill:#0034D6;}
	.st65{clip-path:url(#SVGID_103_);}
	.st66{clip-path:url(#SVGID_105_);}
	.st67{clip-path:url(#SVGID_107_);}
	.st68{fill:none;stroke:#FFFFFF;stroke-width:3.1946;stroke-linecap:round;stroke-linejoin:round;stroke-miterlimit:10;}
	.st69{fill:none;stroke:#FF9D00;stroke-width:3.1946;stroke-linecap:round;stroke-linejoin:round;stroke-miterlimit:10;}
	.st70{clip-path:url(#SVGID_109_);}
	.st71{clip-path:url(#SVGID_111_);}
	.st72{clip-path:url(#SVGID_113_);}
	.st73{clip-path:url(#SVGID_115_);}
	.st74{clip-path:url(#SVGID_117_);}
	.st75{clip-path:url(#SVGID_119_);}
	.st76{clip-path:url(#SVGID_121_);}
	.st77{clip-path:url(#SVGID_123_);}
	.st78{clip-path:url(#SVGID_125_);}
	.st79{clip-path:url(#SVGID_127_);}
	.st80{clip-path:url(#SVGID_129_);}
	.st81{clip-path:url(#SVGID_131_);}
	.st82{clip-path:url(#SVGID_133_);}
	.st83{clip-path:url(#SVGID_135_);}
	.st84{clip-path:url(#SVGID_137_);}
	.st85{clip-path:url(#SVGID_139_);}
	.st86{clip-path:url(#SVGID_141_);}
	.st87{clip-path:url(#SVGID_143_);}
	.st88{clip-path:url(#SVGID_145_);}
	.st89{clip-path:url(#SVGID_147_);}
	.st90{clip-path:url(#SVGID_149_);}
	.st91{clip-path:url(#SVGID_151_);}
	.st92{clip-path:url(#SVGID_153_);}
	.st93{clip-path:url(#SVGID_155_);}
	.st94{clip-path:url(#SVGID_157_);}
	.st95{clip-path:url(#SVGID_159_);}
	.st96{clip-path:url(#SVGID_161_);}
	.st97{clip-path:url(#SVGID_163_);}
	.st98{clip-path:url(#SVGID_165_);}
	.st99{clip-path:url(#SVGID_167_);}
	.st100{clip-path:url(#SVGID_169_);}
	.st101{clip-path:url(#SVGID_171_);}
	.st102{clip-path:url(#SVGID_173_);}
	.st103{clip-path:url(#SVGID_175_);}
	.st104{clip-path:url(#SVGID_177_);}
	.st105{opacity:0.4;fill:none;stroke:#0034D6;stroke-width:2;stroke-miterlimit:10;}
	.st106{fill:#F7F7F7;}
	.st107{fill:#999B9E;}
	.st108{fill:none;stroke:#FFFFFF;stroke-miterlimit:10;}
	.st109{fill:#FFFFFF;stroke:#CACCCD;stroke-miterlimit:10;}
	.st110{fill:none;stroke:#0034D6;stroke-width:2;stroke-miterlimit:10;}
	.st111{opacity:0.8;}
	.st112{clip-path:url(#SVGID_179_);}
	.st113{clip-path:url(#SVGID_181_);}
	.st114{fill:none;stroke:#414042;stroke-width:2;stroke-miterlimit:10;}
	.st115{opacity:0;}
	.st116{fill:none;stroke:#0034D6;stroke-miterlimit:10;}
	.st117{opacity:0.5;fill:#FFFFFF;stroke:#FFFFFF;stroke-miterlimit:10;}
	.st118{fill:#FFFFFF;stroke:#D8D9DA;stroke-miterlimit:10;}
	.st119{fill:none;stroke:#0049DA;stroke-miterlimit:10;}
	.st120{fill:none;stroke:#FF9D00;stroke-width:2;stroke-linejoin:round;stroke-miterlimit:10;}
	.st121{clip-path:url(#SVGID_183_);fill:#FFFFFF;}
	.st122{clip-path:url(#SVGID_185_);fill:#FFFFFF;}
	.st123{clip-path:url(#SVGID_187_);fill:#FFFFFF;}
	.st124{clip-path:url(#SVGID_189_);fill:#FFFFFF;}
	.st125{clip-path:url(#SVGID_191_);fill:#FFFFFF;}
	.st126{clip-path:url(#SVGID_193_);fill:#FFFFFF;}
	.st127{clip-path:url(#SVGID_195_);fill:#FFFFFF;}
	.st128{clip-path:url(#SVGID_197_);}
	.st129{clip-path:url(#SVGID_199_);}
	.st130{clip-path:url(#SVGID_203_);}
	.st131{opacity:0.3;fill:#FF9D00;}
	.st132{clip-path:url(#SVGID_205_);}
	.st133{clip-path:url(#SVGID_207_);}
	.st134{clip-path:url(#SVGID_209_);}
	.st135{clip-path:url(#SVGID_211_);}
	.st136{clip-path:url(#SVGID_213_);}
	.st137{clip-path:url(#SVGID_215_);}
	.st138{clip-path:url(#SVGID_217_);}
	.st139{clip-path:url(#SVGID_219_);}
	.st140{clip-path:url(#SVGID_221_);}
	.st141{clip-path:url(#SVGID_223_);}
	.st142{clip-path:url(#SVGID_225_);}
	.st143{clip-path:url(#SVGID_227_);}
	.st144{clip-path:url(#SVGID_229_);}
	.st145{clip-path:url(#SVGID_231_);}
	.st146{clip-path:url(#SVGID_233_);}
	.st147{clip-path:url(#SVGID_235_);}
	.st148{clip-path:url(#SVGID_237_);}
	.st149{clip-path:url(#SVGID_239_);}
	.st150{clip-path:url(#SVGID_241_);}
	.st151{clip-path:url(#SVGID_243_);}
	.st152{clip-path:url(#SVGID_245_);}
	.st153{clip-path:url(#SVGID_247_);}
	.st154{clip-path:url(#SVGID_249_);}
	.st155{clip-path:url(#SVGID_251_);}
	.st156{clip-path:url(#SVGID_253_);}
	.st157{clip-path:url(#SVGID_255_);}
	.st158{clip-path:url(#SVGID_257_);}
	.st159{clip-path:url(#SVGID_259_);}
	.st160{clip-path:url(#SVGID_261_);}
	.st161{clip-path:url(#SVGID_263_);}
	.st162{clip-path:url(#SVGID_265_);}
	.st163{clip-path:url(#SVGID_267_);}
	.st164{clip-path:url(#SVGID_269_);}
	.st165{clip-path:url(#SVGID_271_);}
	.st166{clip-path:url(#SVGID_273_);}
	.st167{clip-path:url(#SVGID_275_);}
	.st168{clip-path:url(#SVGID_277_);}
	.st169{clip-path:url(#SVGID_279_);}
	.st170{clip-path:url(#SVGID_281_);}
	.st171{clip-path:url(#SVGID_283_);}
	.st172{opacity:0.4;fill:none;stroke:#0049DA;stroke-width:2;stroke-miterlimit:10;}
	.st173{clip-path:url(#SVGID_285_);}
	.st174{clip-path:url(#SVGID_287_);}
	.st175{fill:none;stroke:#FFFFFF;stroke-width:2;stroke-miterlimit:10;}
	.st176{clip-path:url(#SVGID_291_);}
	.st177{clip-path:url(#SVGID_293_);}
	.st178{clip-path:url(#SVGID_295_);}
	.st179{clip-path:url(#SVGID_297_);}
	.st180{clip-path:url(#SVGID_299_);}
	.st181{clip-path:url(#SVGID_301_);}
	.st182{clip-path:url(#SVGID_303_);}
	.st183{clip-path:url(#SVGID_305_);}
	.st184{clip-path:url(#SVGID_307_);}
	.st185{clip-path:url(#SVGID_309_);}
	.st186{clip-path:url(#SVGID_311_);}
	.st187{clip-path:url(#SVGID_313_);}
	.st188{clip-path:url(#SVGID_315_);}
	.st189{clip-path:url(#SVGID_317_);}
	.st190{clip-path:url(#SVGID_319_);}
	.st191{clip-path:url(#SVGID_321_);}
	.st192{clip-path:url(#SVGID_323_);}
	.st193{clip-path:url(#SVGID_325_);}
	.st194{clip-path:url(#SVGID_327_);}
	.st195{clip-path:url(#SVGID_329_);}
	.st196{clip-path:url(#SVGID_331_);}
	.st197{clip-path:url(#SVGID_333_);}
	.st198{clip-path:url(#SVGID_335_);}
	.st199{clip-path:url(#SVGID_337_);}
	.st200{clip-path:url(#SVGID_339_);}
	.st201{clip-path:url(#SVGID_341_);}
	.st202{clip-path:url(#SVGID_343_);}
	.st203{clip-path:url(#SVGID_345_);}
	.st204{clip-path:url(#SVGID_347_);}
	.st205{clip-path:url(#SVGID_349_);}
	.st206{clip-path:url(#SVGID_351_);}
	.st207{clip-path:url(#SVGID_353_);}
	.st208{clip-path:url(#SVGID_355_);}
	.st209{clip-path:url(#SVGID_357_);}
	.st210{clip-path:url(#SVGID_359_);}
	.st211{clip-path:url(#SVGID_361_);}
	.st212{clip-path:url(#SVGID_363_);}
	.st213{clip-path:url(#SVGID_365_);}
	.st214{clip-path:url(#SVGID_367_);}
	.st215{clip-path:url(#SVGID_369_);}
	.st216{fill:#FFFFFF;stroke:#000000;stroke-width:2;stroke-miterlimit:10;}
	.st217{fill:none;stroke:#000000;stroke-width:2;stroke-miterlimit:10;}
	.st218{fill:#E40027;}
	.st219{clip-path:url(#SVGID_371_);}
	.st220{opacity:0.5;clip-path:url(#SVGID_371_);fill:#0034D6;}
	.st221{opacity:0.2;clip-path:url(#SVGID_371_);}
	.st222{clip-path:url(#SVGID_375_);}
	.st223{clip-path:url(#SVGID_377_);}
	.st224{clip-path:url(#SVGID_379_);}
	.st225{clip-path:url(#SVGID_381_);}
	.st226{clip-path:url(#SVGID_383_);}
	.st227{clip-path:url(#SVGID_385_);}
	.st228{clip-path:url(#SVGID_387_);}
	.st229{clip-path:url(#SVGID_389_);}
	.st230{clip-path:url(#SVGID_391_);}
	.st231{clip-path:url(#SVGID_393_);}
	.st232{clip-path:url(#SVGID_395_);}
	.st233{clip-path:url(#SVGID_397_);}
	.st234{clip-path:url(#SVGID_399_);}
	.st235{clip-path:url(#SVGID_401_);}
	.st236{clip-path:url(#SVGID_403_);}
	.st237{clip-path:url(#SVGID_405_);}
	.st238{clip-path:url(#SVGID_407_);}
	.st239{clip-path:url(#SVGID_409_);}
	.st240{clip-path:url(#SVGID_411_);}
	.st241{clip-path:url(#SVGID_413_);}
	.st242{clip-path:url(#SVGID_415_);}
	.st243{clip-path:url(#SVGID_417_);}
	.st244{clip-path:url(#SVGID_419_);}
	.st245{clip-path:url(#SVGID_421_);}
	.st246{clip-path:url(#SVGID_423_);}
	.st247{clip-path:url(#SVGID_425_);}
	.st248{clip-path:url(#SVGID_427_);}
	.st249{clip-path:url(#SVGID_429_);}
	.st250{clip-path:url(#SVGID_431_);}
	.st251{clip-path:url(#SVGID_433_);}
	.st252{clip-path:url(#SVGID_435_);}
	.st253{clip-path:url(#SVGID_437_);}
	.st254{clip-path:url(#SVGID_439_);}
	.st255{clip-path:url(#SVGID_441_);}
	.st256{clip-path:url(#SVGID_443_);}
	.st257{clip-path:url(#SVGID_445_);}
	.st258{clip-path:url(#SVGID_447_);}
	.st259{clip-path:url(#SVGID_449_);}
	.st260{clip-path:url(#SVGID_451_);}
	.st261{clip-path:url(#SVGID_453_);}
	.st262{clip-path:url(#SVGID_455_);}
	.st263{clip-path:url(#SVGID_457_);}
	.st264{clip-path:url(#SVGID_459_);}
	.st265{clip-path:url(#SVGID_461_);}
	.st266{clip-path:url(#SVGID_463_);}
	.st267{clip-path:url(#SVGID_465_);}
	.st268{clip-path:url(#SVGID_467_);}
	.st269{clip-path:url(#SVGID_469_);}
	.st270{clip-path:url(#SVGID_471_);}
	.st271{clip-path:url(#SVGID_473_);}
	.st272{clip-path:url(#SVGID_475_);}
	.st273{clip-path:url(#SVGID_477_);}
	.st274{clip-path:url(#SVGID_479_);}
	.st275{clip-path:url(#SVGID_481_);}
	.st276{clip-path:url(#SVGID_483_);}
	.st277{clip-path:url(#SVGID_485_);}
	.st278{clip-path:url(#SVGID_487_);}
	.st279{clip-path:url(#SVGID_489_);}
	.st280{clip-path:url(#SVGID_491_);}
	.st281{clip-path:url(#SVGID_493_);}
	.st282{clip-path:url(#SVGID_495_);}
	.st283{clip-path:url(#SVGID_497_);}
	.st284{clip-path:url(#SVGID_499_);}
	.st285{clip-path:url(#SVGID_501_);}
	.st286{clip-path:url(#SVGID_503_);}
	.st287{clip-path:url(#SVGID_505_);}
	.st288{clip-path:url(#SVGID_507_);}
	.st289{clip-path:url(#SVGID_509_);}
	.st290{clip-path:url(#SVGID_511_);}
	.st291{clip-path:url(#SVGID_513_);}
	.st292{clip-path:url(#SVGID_515_);}
	.st293{clip-path:url(#SVGID_517_);}
	.st294{clip-path:url(#SVGID_519_);}
	.st295{clip-path:url(#SVGID_521_);}
	.st296{clip-path:url(#SVGID_523_);}
	.st297{clip-path:url(#SVGID_525_);}
	.st298{clip-path:url(#SVGID_527_);}
	.st299{clip-path:url(#SVGID_529_);}
	.st300{clip-path:url(#SVGID_531_);}
	.st301{fill:#0046F4;}
</style>
<g id="Слой_1">
	<g>
		<path d="M55.8,16.7c0.9,0,1.7,0.1,2.4,0.3c0.7,0.2,1.3,0.5,1.8,0.9s0.9,0.9,1.1,1.5c0.3,0.6,0.4,1.3,0.4,2.1
			c0,0.8-0.1,1.5-0.4,2.1c-0.3,0.6-0.6,1.1-1.1,1.5s-1.1,0.7-1.8,0.9c-0.7,0.2-1.5,0.3-2.4,0.3h-2.6v4.2c0,0.2-0.1,0.3-0.2,0.4
			c-0.1,0.1-0.2,0.2-0.4,0.2h-2.7c-0.2,0-0.3-0.1-0.4-0.2c-0.1-0.1-0.2-0.2-0.2-0.4V17.3c0-0.2,0.1-0.3,0.2-0.4
			c0.1-0.1,0.2-0.2,0.4-0.2H55.8z M53.2,23.1h2.5c0.6,0,1.1-0.1,1.4-0.4s0.6-0.7,0.6-1.2c0-0.6-0.2-1-0.6-1.2s-0.9-0.4-1.4-0.4h-2.5
			V23.1z M66.2,26.9c0,0.3,0.1,0.6,0.2,0.8c0.1,0.2,0.3,0.4,0.4,0.5s0.4,0.2,0.6,0.3c0.2,0,0.4,0.1,0.6,0.1c0.4,0,0.7,0,1-0.1
			c0.2-0.1,0.4-0.2,0.6-0.3c0.2-0.1,0.3-0.2,0.3-0.2c0.1,0,0.2-0.1,0.4-0.1H73c0.3,0,0.5,0.2,0.5,0.5c0,0.2-0.1,0.4-0.3,0.8
			c-0.2,0.3-0.5,0.7-1,1c-0.4,0.4-1,0.7-1.7,0.9c-0.7,0.3-1.5,0.4-2.4,0.4c-0.9,0-1.7-0.1-2.4-0.4c-0.7-0.3-1.3-0.6-1.7-1.1
			c-0.5-0.5-0.8-1.1-1.1-1.7c-0.2-0.7-0.4-1.5-0.4-2.3c0-0.8,0.1-1.5,0.4-2.2c0.2-0.7,0.6-1.3,1.1-1.8c0.5-0.5,1.1-0.9,1.7-1.2
			c0.7-0.3,1.5-0.4,2.4-0.4c1,0,1.9,0.2,2.6,0.5c0.7,0.3,1.3,0.8,1.7,1.3c0.4,0.5,0.8,1.1,1,1.8c0.2,0.7,0.3,1.3,0.3,2v0.6
			c0,0.2-0.1,0.3-0.2,0.4s-0.2,0.2-0.4,0.2H66.2z M68.1,23c-0.6,0-1,0.2-1.3,0.5c-0.3,0.3-0.5,0.7-0.5,1.1h3.7
			c-0.1-0.4-0.2-0.8-0.5-1.1C69.1,23.1,68.7,23,68.1,23z M84.2,20.8c0-0.1,0.1-0.2,0.2-0.3c0.1-0.1,0.3-0.2,0.6-0.2h2.4
			c0.2,0,0.3,0.1,0.4,0.2c0.1,0.1,0.2,0.2,0.2,0.4v9.6c0,0.2-0.1,0.3-0.2,0.4c-0.1,0.1-0.2,0.2-0.4,0.2h-2.6c-0.2,0-0.3-0.1-0.4-0.2
			c-0.1-0.1-0.2-0.2-0.2-0.4v-3.9l-1.4,2.3c-0.1,0.1-0.2,0.2-0.3,0.3c-0.1,0.1-0.2,0.1-0.4,0.1h-0.8c-0.2,0-0.3,0-0.4-0.1
			c-0.1-0.1-0.2-0.2-0.3-0.3l-1.4-2.3v3.9c0,0.2-0.1,0.3-0.2,0.4c-0.1,0.1-0.2,0.2-0.4,0.2H76c-0.2,0-0.3-0.1-0.4-0.2
			c-0.1-0.1-0.2-0.2-0.2-0.4V21c0-0.2,0.1-0.3,0.2-0.4c0.1-0.1,0.2-0.2,0.4-0.2h2.4c0.3,0,0.5,0.1,0.6,0.2c0.1,0.1,0.2,0.2,0.2,0.3
			l2.5,4L84.2,20.8z M100.9,25c0,0.2,0,0.5,0,0.8s0,0.6,0,0.8c0,0.7-0.2,1.3-0.5,1.8c-0.3,0.6-0.7,1.1-1.1,1.5
			c-0.5,0.4-1.1,0.8-1.7,1c-0.7,0.2-1.4,0.4-2.3,0.4c-0.8,0-1.6-0.1-2.3-0.4c-0.7-0.2-1.3-0.6-1.7-1c-0.5-0.4-0.9-0.9-1.1-1.5
			c-0.3-0.6-0.4-1.2-0.5-1.8c0-0.2,0-0.5,0-0.8s0-0.6,0-0.8c0-0.7,0.2-1.3,0.4-1.8s0.7-1.1,1.1-1.5c0.5-0.4,1.1-0.8,1.7-1
			c0.7-0.3,1.4-0.4,2.3-0.4c0.8,0,1.6,0.1,2.3,0.4c0.7,0.3,1.3,0.6,1.7,1s0.9,0.9,1.1,1.5C100.8,23.7,100.9,24.3,100.9,25z
			 M93.5,26.4c0,0.5,0.2,0.9,0.6,1.2c0.3,0.3,0.8,0.4,1.3,0.4c0.5,0,1-0.1,1.3-0.4c0.3-0.3,0.5-0.7,0.6-1.2c0-0.2,0-0.4,0-0.7
			c0-0.3,0-0.5,0-0.7c0-0.5-0.2-0.9-0.6-1.2c-0.3-0.3-0.8-0.4-1.3-0.4c-0.5,0-1,0.1-1.3,0.4c-0.3,0.3-0.5,0.7-0.6,1.2
			c0,0.2,0,0.4,0,0.7C93.4,26,93.4,26.2,93.5,26.4z M113.3,20.4c0.2,0,0.3,0.1,0.4,0.2c0.1,0.1,0.2,0.2,0.2,0.4v9.6
			c0,0.2-0.1,0.3-0.2,0.4c-0.1,0.1-0.2,0.2-0.4,0.2h-2.6c-0.2,0-0.3-0.1-0.4-0.2c-0.1-0.1-0.2-0.2-0.2-0.4v-3.1h-3.6v3.1
			c0,0.2-0.1,0.3-0.2,0.4c-0.1,0.1-0.2,0.2-0.4,0.2h-2.6c-0.2,0-0.3-0.1-0.4-0.2c-0.1-0.1-0.2-0.2-0.2-0.4V21c0-0.2,0.1-0.3,0.2-0.4
			c0.1-0.1,0.2-0.2,0.4-0.2h2.6c0.2,0,0.3,0.1,0.4,0.2c0.1,0.1,0.2,0.2,0.2,0.4v3.2h3.6V21c0-0.2,0.1-0.3,0.2-0.4
			c0.1-0.1,0.2-0.2,0.4-0.2H113.3z M125.7,20.4c0.2,0,0.3,0.1,0.4,0.2c0.1,0.1,0.2,0.2,0.2,0.4V23c0,0.2-0.1,0.3-0.2,0.4
			c-0.1,0.1-0.2,0.2-0.4,0.2h-3.1v6.9c0,0.2-0.1,0.3-0.2,0.4c-0.1,0.1-0.2,0.2-0.4,0.2h-2.6c-0.2,0-0.3-0.1-0.4-0.2
			c-0.1-0.1-0.2-0.2-0.2-0.4v-6.9h-3.1c-0.2,0-0.3-0.1-0.4-0.2c-0.1-0.1-0.2-0.2-0.2-0.4V21c0-0.2,0.1-0.3,0.2-0.4
			c0.1-0.1,0.2-0.2,0.4-0.2H125.7z M138.1,20.4c0.2,0,0.3,0.1,0.4,0.2c0.1,0.1,0.2,0.2,0.2,0.4v9.6c0,0.2-0.1,0.3-0.2,0.4
			c-0.1,0.1-0.2,0.2-0.4,0.2h-2.6c-0.2,0-0.3-0.1-0.4-0.2c-0.1-0.1-0.2-0.2-0.2-0.4v-3.1h-3.6v3.1c0,0.2-0.1,0.3-0.2,0.4
			c-0.1,0.1-0.2,0.2-0.4,0.2h-2.6c-0.2,0-0.3-0.1-0.4-0.2c-0.1-0.1-0.2-0.2-0.2-0.4V21c0-0.2,0.1-0.3,0.2-0.4
			c0.1-0.1,0.2-0.2,0.4-0.2h2.6c0.2,0,0.3,0.1,0.4,0.2c0.1,0.1,0.2,0.2,0.2,0.4v3.2h3.6V21c0-0.2,0.1-0.3,0.2-0.4
			c0.1-0.1,0.2-0.2,0.4-0.2H138.1z M140.4,28c0-0.9,0.3-1.6,1-2.2c0.7-0.6,1.8-1,3.4-1.3l2.4-0.4c0-0.3-0.1-0.6-0.3-0.8
			c-0.2-0.2-0.5-0.3-0.9-0.3c-0.3,0-0.6,0-0.7,0.1c-0.2,0.1-0.3,0.2-0.4,0.2c-0.1,0.1-0.2,0.2-0.4,0.2c-0.1,0-0.2,0-0.4,0h-2.6
			c-0.1,0-0.3,0-0.3-0.1c-0.1-0.1-0.1-0.2-0.1-0.3c0-0.3,0.2-0.6,0.4-1c0.2-0.3,0.6-0.7,1-0.9c0.4-0.3,0.9-0.5,1.5-0.7
			c0.6-0.2,1.2-0.3,1.9-0.3c0.8,0,1.6,0.1,2.2,0.3c0.6,0.2,1.1,0.5,1.5,0.9c0.4,0.4,0.7,0.8,0.9,1.3c0.2,0.5,0.3,1.1,0.3,1.7v6.2
			c0,0.2-0.1,0.3-0.2,0.4c-0.1,0.1-0.2,0.2-0.4,0.2h-2.6c-0.2,0-0.3-0.1-0.4-0.2c-0.1-0.1-0.2-0.2-0.2-0.4v-0.6
			c-0.3,0.4-0.7,0.7-1.2,1c-0.5,0.2-1.1,0.4-1.9,0.4c-0.6,0-1.1-0.1-1.6-0.2c-0.5-0.2-0.8-0.4-1.2-0.7c-0.3-0.3-0.5-0.6-0.7-1
			C140.5,28.9,140.4,28.5,140.4,28z M145.1,28.5c0.3,0,0.6-0.1,0.8-0.2c0.3-0.1,0.5-0.2,0.7-0.4c0.2-0.2,0.3-0.4,0.5-0.6
			c0.1-0.2,0.2-0.5,0.2-0.8l-1.9,0.3c-0.4,0.1-0.7,0.2-0.9,0.4c-0.2,0.2-0.3,0.4-0.3,0.6c0,0.3,0.1,0.4,0.3,0.5
			C144.5,28.5,144.7,28.5,145.1,28.5z M152.9,24.4c0-0.6,0.1-1.2,0.3-1.7c0.2-0.5,0.6-0.9,1-1.3c0.4-0.3,0.9-0.6,1.5-0.8
			c0.6-0.2,1.2-0.3,1.9-0.3h4.9c0.2,0,0.3,0.1,0.4,0.2c0.1,0.1,0.2,0.2,0.2,0.4v9.6c0,0.2-0.1,0.3-0.2,0.4c-0.1,0.1-0.2,0.2-0.4,0.2
			H160c-0.2,0-0.3-0.1-0.4-0.2c-0.1-0.1-0.2-0.2-0.2-0.4v-2.1H158l-1.4,2.2c0,0.1-0.1,0.2-0.2,0.2c-0.1,0.1-0.3,0.1-0.4,0.1h-3
			c-0.1,0-0.3,0-0.4-0.1c-0.1-0.1-0.1-0.2-0.1-0.3c0-0.1,0-0.2,0.1-0.3l1.8-2.8c-0.5-0.4-0.8-0.8-1.1-1.3
			C153,25.7,152.9,25.1,152.9,24.4z M159.4,23.6h-1.8c-0.3,0-0.6,0.1-0.8,0.2c-0.2,0.1-0.3,0.3-0.3,0.7c0,0.3,0.1,0.5,0.3,0.7
			c0.2,0.1,0.4,0.2,0.8,0.2h1.8V23.6z M173.5,23.9l2.9-3.2c0.1-0.1,0.2-0.1,0.3-0.2c0.1-0.1,0.3-0.1,0.5-0.1h2.9
			c0.1,0,0.3,0,0.3,0.1c0.1,0.1,0.1,0.2,0.1,0.4c0,0.1,0,0.1,0,0.2c0,0-0.1,0.1-0.2,0.2l-3.7,4.3l4.2,4.6c0.1,0.1,0.1,0.2,0.2,0.2
			c0,0,0,0.1,0,0.2c0,0.1,0,0.3-0.1,0.3c-0.1,0.1-0.2,0.1-0.4,0.1h-3.1c-0.2,0-0.4,0-0.5-0.1c-0.1-0.1-0.2-0.1-0.3-0.3l-3.1-3.4v3.2
			c0,0.2-0.1,0.3-0.2,0.4c-0.1,0.1-0.2,0.2-0.4,0.2h-2.6c-0.2,0-0.3-0.1-0.4-0.2c-0.1-0.1-0.2-0.2-0.2-0.4V21c0-0.2,0.1-0.3,0.2-0.4
			c0.1-0.1,0.2-0.2,0.4-0.2h2.6c0.2,0,0.3,0.1,0.4,0.2c0.1,0.1,0.2,0.2,0.2,0.4V23.9z M192.4,25c0,0.2,0,0.5,0,0.8s0,0.6,0,0.8
			c0,0.7-0.2,1.3-0.5,1.8c-0.3,0.6-0.7,1.1-1.1,1.5c-0.5,0.4-1.1,0.8-1.7,1c-0.7,0.2-1.4,0.4-2.3,0.4c-0.8,0-1.6-0.1-2.3-0.4
			c-0.7-0.2-1.3-0.6-1.7-1c-0.5-0.4-0.9-0.9-1.1-1.5c-0.3-0.6-0.4-1.2-0.5-1.8c0-0.2,0-0.5,0-0.8s0-0.6,0-0.8c0-0.7,0.2-1.3,0.4-1.8
			c0.3-0.6,0.7-1.1,1.1-1.5c0.5-0.4,1.1-0.8,1.7-1c0.7-0.3,1.4-0.4,2.3-0.4c0.8,0,1.6,0.1,2.3,0.4c0.7,0.3,1.3,0.6,1.7,1
			c0.5,0.4,0.9,0.9,1.1,1.5C192.2,23.7,192.4,24.3,192.4,25z M184.9,26.4c0,0.5,0.2,0.9,0.6,1.2c0.3,0.3,0.8,0.4,1.3,0.4
			c0.5,0,1-0.1,1.3-0.4c0.3-0.3,0.5-0.7,0.6-1.2c0-0.2,0-0.4,0-0.7c0-0.3,0-0.5,0-0.7c0-0.5-0.2-0.9-0.6-1.2
			c-0.3-0.3-0.8-0.4-1.3-0.4c-0.5,0-1,0.1-1.3,0.4c-0.3,0.3-0.5,0.7-0.6,1.2c0,0.2,0,0.4,0,0.7C184.9,26,184.9,26.2,184.9,26.4z
			 M203,20.8c0-0.1,0.1-0.2,0.2-0.3c0.1-0.1,0.3-0.2,0.6-0.2h2.4c0.2,0,0.3,0.1,0.4,0.2c0.1,0.1,0.2,0.2,0.2,0.4v9.6
			c0,0.2-0.1,0.3-0.2,0.4c-0.1,0.1-0.2,0.2-0.4,0.2h-2.6c-0.2,0-0.3-0.1-0.4-0.2c-0.1-0.1-0.2-0.2-0.2-0.4v-3.9l-1.4,2.3
			c-0.1,0.1-0.2,0.2-0.3,0.3c-0.1,0.1-0.2,0.1-0.4,0.1h-0.8c-0.2,0-0.3,0-0.4-0.1c-0.1-0.1-0.2-0.2-0.3-0.3l-1.4-2.3v3.9
			c0,0.2-0.1,0.3-0.2,0.4c-0.1,0.1-0.2,0.2-0.4,0.2h-2.6c-0.2,0-0.3-0.1-0.4-0.2c-0.1-0.1-0.2-0.2-0.2-0.4V21c0-0.2,0.1-0.3,0.2-0.4
			c0.1-0.1,0.2-0.2,0.4-0.2h2.4c0.3,0,0.5,0.1,0.6,0.2c0.1,0.1,0.2,0.2,0.2,0.3l2.5,4L203,20.8z M219.5,20.4c0.2,0,0.3,0.1,0.4,0.2
			c0.1,0.1,0.2,0.2,0.2,0.4v9.6c0,0.2-0.1,0.3-0.2,0.4c-0.1,0.1-0.2,0.2-0.4,0.2h-2.6c-0.2,0-0.3-0.1-0.4-0.2
			c-0.1-0.1-0.2-0.2-0.2-0.4v-6.9h-3.6v6.9c0,0.2-0.1,0.3-0.2,0.4c-0.1,0.1-0.2,0.2-0.4,0.2h-2.6c-0.2,0-0.3-0.1-0.4-0.2
			c-0.1-0.1-0.2-0.2-0.2-0.4V21c0-0.2,0.1-0.3,0.2-0.4c0.1-0.1,0.2-0.2,0.4-0.2H219.5z M221.7,28c0-0.9,0.3-1.6,1-2.2
			c0.7-0.6,1.8-1,3.4-1.3l2.4-0.4c0-0.3-0.1-0.6-0.3-0.8c-0.2-0.2-0.5-0.3-0.9-0.3c-0.3,0-0.6,0-0.7,0.1c-0.2,0.1-0.3,0.2-0.4,0.2
			c-0.1,0.1-0.2,0.2-0.4,0.2c-0.1,0-0.2,0-0.4,0h-2.6c-0.1,0-0.3,0-0.3-0.1c-0.1-0.1-0.1-0.2-0.1-0.3c0-0.3,0.2-0.6,0.4-1
			c0.2-0.3,0.6-0.7,1-0.9c0.4-0.3,0.9-0.5,1.5-0.7c0.6-0.2,1.2-0.3,1.9-0.3c0.8,0,1.6,0.1,2.2,0.3c0.6,0.2,1.1,0.5,1.5,0.9
			c0.4,0.4,0.7,0.8,0.9,1.3c0.2,0.5,0.3,1.1,0.3,1.7v6.2c0,0.2-0.1,0.3-0.2,0.4c-0.1,0.1-0.2,0.2-0.4,0.2h-2.6
			c-0.2,0-0.3-0.1-0.4-0.2c-0.1-0.1-0.2-0.2-0.2-0.4v-0.6c-0.3,0.4-0.7,0.7-1.2,1c-0.5,0.2-1.1,0.4-1.9,0.4c-0.6,0-1.1-0.1-1.6-0.2
			c-0.5-0.2-0.8-0.4-1.1-0.7c-0.3-0.3-0.5-0.6-0.7-1C221.8,28.9,221.7,28.5,221.7,28z M226.4,28.5c0.3,0,0.6-0.1,0.8-0.2
			c0.3-0.1,0.5-0.2,0.7-0.4c0.2-0.2,0.3-0.4,0.5-0.6c0.1-0.2,0.2-0.5,0.2-0.8l-1.9,0.3c-0.4,0.1-0.7,0.2-0.9,0.4
			c-0.2,0.2-0.3,0.4-0.3,0.6c0,0.3,0.1,0.4,0.3,0.5C225.8,28.5,226.1,28.5,226.4,28.5z M244.9,20.4c0.2,0,0.3,0.1,0.4,0.2
			c0.1,0.1,0.2,0.2,0.2,0.4v9.6c0,0.2-0.1,0.3-0.2,0.4c-0.1,0.1-0.2,0.2-0.4,0.2h-2.6c-0.2,0-0.3-0.1-0.4-0.2
			c-0.1-0.1-0.2-0.2-0.2-0.4v-3.1h-3.6v3.1c0,0.2-0.1,0.3-0.2,0.4c-0.1,0.1-0.2,0.2-0.4,0.2h-2.6c-0.2,0-0.3-0.1-0.4-0.2
			c-0.1-0.1-0.2-0.2-0.2-0.4V21c0-0.2,0.1-0.3,0.2-0.4c0.1-0.1,0.2-0.2,0.4-0.2h2.6c0.2,0,0.3,0.1,0.4,0.2c0.1,0.1,0.2,0.2,0.2,0.4
			v3.2h3.6V21c0-0.2,0.1-0.3,0.2-0.4c0.1-0.1,0.2-0.2,0.4-0.2H244.9z M255.7,31.1c-0.2,0-0.3-0.1-0.4-0.2c-0.1-0.1-0.2-0.2-0.2-0.4
			V26l-3.9,4.8c-0.1,0.2-0.3,0.2-0.5,0.2h-2.4c-0.2,0-0.3-0.1-0.4-0.2c-0.1-0.1-0.2-0.2-0.2-0.4V21c0-0.2,0.1-0.3,0.2-0.4
			c0.1-0.1,0.2-0.2,0.4-0.2h2.6c0.2,0,0.3,0.1,0.4,0.2c0.1,0.1,0.2,0.2,0.2,0.4v4.5l3.9-4.9c0.1-0.2,0.3-0.2,0.5-0.2h2.4
			c0.2,0,0.3,0.1,0.4,0.2c0.1,0.1,0.2,0.2,0.2,0.4v9.6c0,0.2-0.1,0.3-0.2,0.4c-0.1,0.1-0.2,0.2-0.4,0.2H255.7z M260.9,24.4
			c0-0.6,0.1-1.2,0.4-1.7c0.2-0.5,0.6-0.9,1-1.3c0.4-0.3,0.9-0.6,1.5-0.8c0.6-0.2,1.2-0.3,1.9-0.3h4.9c0.1,0,0.3,0.1,0.4,0.2
			c0.1,0.1,0.2,0.2,0.2,0.4v9.6c0,0.2-0.1,0.3-0.2,0.4c-0.1,0.1-0.2,0.2-0.4,0.2H268c-0.1,0-0.3-0.1-0.4-0.2
			c-0.1-0.1-0.2-0.2-0.2-0.4v-2.1H266l-1.4,2.2c0,0.1-0.1,0.2-0.2,0.2c-0.1,0.1-0.3,0.1-0.4,0.1h-3c-0.1,0-0.3,0-0.3-0.1
			c-0.1-0.1-0.1-0.2-0.1-0.3c0-0.1,0-0.2,0.1-0.3l1.8-2.8c-0.5-0.4-0.8-0.8-1.1-1.3C261.1,25.7,260.9,25.1,260.9,24.4z M267.4,23.6
			h-1.8c-0.3,0-0.6,0.1-0.8,0.2c-0.2,0.1-0.3,0.3-0.3,0.7c0,0.3,0.1,0.5,0.3,0.7c0.2,0.1,0.4,0.2,0.8,0.2h1.8V23.6z"/>
		<path class="st64" d="M36.5,3.3L19.2,0c-0.2,0-0.4,0-0.6,0L1.3,3.3C0.6,3.4,0,4.1,0,4.9v18.4c0,11.9,6.1,19.5,18.2,22.8
			c0.1,0,0.2,0.1,0.3,0.1c0.1,0,0.2,0,0.3,0h0c0.1,0,0.2,0,0.3,0c0.1,0,0.2,0,0.3-0.1c0.1,0,0.2-0.1,0.3-0.1c0,0,0,0,0,0
			c0,0,0,0,0.1,0c0.1,0,0.1-0.1,0.2-0.2l0.1-0.1l14-13.6l0.1-0.1c0,0,0.1-0.1,0.1-0.1c2.4-2.4,3.6-5.9,3.6-10.3V4.9
			C37.9,4.1,37.3,3.4,36.5,3.3z M20.4,40.6v-4.8h3.1c0.7,0,1.4,0,2.1-0.1L20.4,40.6z M34.6,21.5c0,9.1-6,11-11.1,11h-4.7
			c-0.1,0-0.1,0-0.2,0h-1.5v9.9C7.8,39.3,3.2,33.1,3.2,23.3V6.2l15.6-2.9l15.8,2.9V21.5z"/>
		<path class="st51" d="M25.2,23.5H12c-0.5,0-0.9,0.4-0.9,0.9v1.4c0,0.5,0.4,0.9,0.9,0.9h13.3c0.5,0,0.9-0.4,0.9-0.9v-1.4
			C26.1,23.9,25.7,23.5,25.2,23.5z M11.1,17.9v1.4c0,0.5,0.4,0.9,0.9,0.9h13.3c0.5,0,0.9-0.4,0.9-0.9v-1.4c0-0.5-0.4-0.9-0.9-0.9H12
			C11.5,17,11.1,17.4,11.1,17.9z M11.1,11.4v1.4c0,0.5,0.4,0.9,0.9,0.9h7.6c0.5,0,0.9-0.4,0.9-0.9v-1.4c0-0.5-0.4-0.9-0.9-0.9H12
			C11.5,10.5,11.1,10.9,11.1,11.4z"/>
	</g>
</g>
<g id="Слой_2">
</g>
<g id="Слой_3">
</g>
<g id="Слой_4">
</g>
<g id="Слой_5">
</g>
</svg>
