<?xml version="1.0" encoding="utf-8"?>
<!-- Generator: Adobe Illustrator 17.1.0, SVG Export Plug-In . SVG Version: 6.00 Build 0)  -->
<!DOCTYPE svg PUBLIC "-//W3C//DTD SVG 1.1//EN" "http://www.w3.org/Graphics/SVG/1.1/DTD/svg11.dtd">
<svg version="1.1" xmlns="http://www.w3.org/2000/svg" xmlns:xlink="http://www.w3.org/1999/xlink" x="0px" y="0px"
	 viewBox="0 0 136.4 32.5" style="enable-background:new 0 0 136.4 32.5;" xml:space="preserve">
<style type="text/css">
	.st0{fill:#AEB0B2;}
	.st1{clip-path:url(#SVGID_2_);fill:#FFFFFF;}
	.st2{clip-path:url(#SVGID_4_);fill:#FFFFFF;}
	.st3{clip-path:url(#SVGID_6_);fill:#FFFFFF;}
	.st4{clip-path:url(#SVGID_8_);}
	.st5{fill:#E4E4E2;}
	.st6{opacity:0.5;clip-path:url(#SVGID_8_);fill:#0034D6;}
	.st7{opacity:0.2;clip-path:url(#SVGID_8_);}
	.st8{clip-path:url(#SVGID_12_);}
	.st9{clip-path:url(#SVGID_14_);}
	.st10{clip-path:url(#SVGID_16_);}
	.st11{fill:none;stroke:#FFFFFF;stroke-linecap:round;stroke-linejoin:round;stroke-miterlimit:10;}
	.st12{clip-path:url(#SVGID_18_);}
	.st13{clip-path:url(#SVGID_20_);}
	.st14{clip-path:url(#SVGID_22_);}
	.st15{clip-path:url(#SVGID_24_);}
	.st16{clip-path:url(#SVGID_26_);}
	.st17{clip-path:url(#SVGID_28_);}
	.st18{clip-path:url(#SVGID_30_);}
	.st19{clip-path:url(#SVGID_32_);}
	.st20{clip-path:url(#SVGID_34_);}
	.st21{clip-path:url(#SVGID_36_);}
	.st22{clip-path:url(#SVGID_38_);}
	.st23{clip-path:url(#SVGID_40_);}
	.st24{clip-path:url(#SVGID_42_);}
	.st25{clip-path:url(#SVGID_44_);}
	.st26{clip-path:url(#SVGID_46_);}
	.st27{clip-path:url(#SVGID_48_);}
	.st28{clip-path:url(#SVGID_50_);}
	.st29{clip-path:url(#SVGID_52_);}
	.st30{clip-path:url(#SVGID_54_);}
	.st31{clip-path:url(#SVGID_56_);}
	.st32{clip-path:url(#SVGID_58_);}
	.st33{clip-path:url(#SVGID_60_);}
	.st34{clip-path:url(#SVGID_62_);}
	.st35{clip-path:url(#SVGID_64_);}
	.st36{clip-path:url(#SVGID_66_);}
	.st37{clip-path:url(#SVGID_68_);}
	.st38{clip-path:url(#SVGID_70_);}
	.st39{clip-path:url(#SVGID_72_);}
	.st40{clip-path:url(#SVGID_74_);}
	.st41{clip-path:url(#SVGID_76_);}
	.st42{clip-path:url(#SVGID_78_);}
	.st43{clip-path:url(#SVGID_80_);}
	.st44{clip-path:url(#SVGID_82_);}
	.st45{clip-path:url(#SVGID_84_);}
	.st46{clip-path:url(#SVGID_86_);}
	.st47{clip-path:url(#SVGID_88_);}
	.st48{fill:#ECEAEB;}
	.st49{fill:#F3F4F6;}
	.st50{opacity:0.7;}
	.st51{fill:#FF9D00;}
	.st52{fill:#FFFFFF;}
	.st53{fill:#FFA829;}
	.st54{clip-path:url(#SVGID_92_);}
	.st55{clip-path:url(#SVGID_94_);}
	.st56{fill:url(#SVGID_97_);}
	.st57{opacity:0.4;fill:none;stroke:#FFFFFF;stroke-width:2;stroke-miterlimit:10;}
	.st58{fill:#414042;}
	.st59{opacity:0.6;}
	.st60{fill:#808080;}
	.st61{opacity:0.5;}
	.st62{opacity:0.4;fill:none;stroke:#FFFFFF;stroke-miterlimit:10;}
	.st63{clip-path:url(#SVGID_101_);}
	.st64{fill:#0034D6;}
	.st65{clip-path:url(#SVGID_103_);}
	.st66{clip-path:url(#SVGID_105_);}
	.st67{clip-path:url(#SVGID_107_);}
	.st68{fill:none;stroke:#FFFFFF;stroke-width:3.1946;stroke-linecap:round;stroke-linejoin:round;stroke-miterlimit:10;}
	.st69{fill:none;stroke:#FF9D00;stroke-width:3.1946;stroke-linecap:round;stroke-linejoin:round;stroke-miterlimit:10;}
	.st70{clip-path:url(#SVGID_109_);}
	.st71{clip-path:url(#SVGID_111_);}
	.st72{clip-path:url(#SVGID_113_);}
	.st73{clip-path:url(#SVGID_115_);}
	.st74{clip-path:url(#SVGID_117_);}
	.st75{clip-path:url(#SVGID_119_);}
	.st76{clip-path:url(#SVGID_121_);}
	.st77{clip-path:url(#SVGID_123_);}
	.st78{clip-path:url(#SVGID_125_);}
	.st79{clip-path:url(#SVGID_127_);}
	.st80{clip-path:url(#SVGID_129_);}
	.st81{clip-path:url(#SVGID_131_);}
	.st82{clip-path:url(#SVGID_133_);}
	.st83{clip-path:url(#SVGID_135_);}
	.st84{clip-path:url(#SVGID_137_);}
	.st85{clip-path:url(#SVGID_139_);}
	.st86{clip-path:url(#SVGID_141_);}
	.st87{clip-path:url(#SVGID_143_);}
	.st88{clip-path:url(#SVGID_145_);}
	.st89{clip-path:url(#SVGID_147_);}
	.st90{clip-path:url(#SVGID_149_);}
	.st91{clip-path:url(#SVGID_151_);}
	.st92{clip-path:url(#SVGID_153_);}
	.st93{clip-path:url(#SVGID_155_);}
	.st94{clip-path:url(#SVGID_157_);}
	.st95{clip-path:url(#SVGID_159_);}
	.st96{clip-path:url(#SVGID_161_);}
	.st97{clip-path:url(#SVGID_163_);}
	.st98{clip-path:url(#SVGID_165_);}
	.st99{clip-path:url(#SVGID_167_);}
	.st100{clip-path:url(#SVGID_169_);}
	.st101{clip-path:url(#SVGID_171_);}
	.st102{clip-path:url(#SVGID_173_);}
	.st103{clip-path:url(#SVGID_175_);}
	.st104{clip-path:url(#SVGID_177_);}
	.st105{fill:#999B9E;}
	.st106{opacity:0.4;fill:none;stroke:#0034D6;stroke-width:2;stroke-miterlimit:10;}
	.st107{fill:#F7F7F7;}
	.st108{fill:none;stroke:#FFFFFF;stroke-miterlimit:10;}
	.st109{fill:#FFFFFF;stroke:#CACCCD;stroke-miterlimit:10;}
	.st110{fill:none;stroke:#0034D6;stroke-width:2;stroke-miterlimit:10;}
	.st111{opacity:0.8;}
	.st112{clip-path:url(#SVGID_179_);}
	.st113{clip-path:url(#SVGID_181_);}
	.st114{fill:none;stroke:#414042;stroke-width:2;stroke-miterlimit:10;}
	.st115{opacity:0;}
	.st116{fill:none;stroke:#0034D6;stroke-miterlimit:10;}
	.st117{opacity:0.5;fill:#FFFFFF;stroke:#FFFFFF;stroke-miterlimit:10;}
	.st118{fill:#FFFFFF;stroke:#D8D9DA;stroke-miterlimit:10;}
	.st119{fill:none;stroke:#0049DA;stroke-miterlimit:10;}
	.st120{fill:#0049DA;}
	.st121{fill:none;stroke:#FF9D00;stroke-width:2;stroke-linejoin:round;stroke-miterlimit:10;}
	.st122{clip-path:url(#SVGID_183_);fill:#FFFFFF;}
	.st123{clip-path:url(#SVGID_185_);fill:#FFFFFF;}
	.st124{clip-path:url(#SVGID_187_);fill:#FFFFFF;}
	.st125{clip-path:url(#SVGID_189_);fill:#FFFFFF;}
	.st126{clip-path:url(#SVGID_191_);fill:#FFFFFF;}
	.st127{clip-path:url(#SVGID_193_);fill:#FFFFFF;}
	.st128{clip-path:url(#SVGID_195_);fill:#FFFFFF;}
	.st129{clip-path:url(#SVGID_197_);}
	.st130{clip-path:url(#SVGID_199_);}
	.st131{clip-path:url(#SVGID_203_);}
	.st132{fill:none;}
	.st133{opacity:0.3;fill:#FF9D00;}
	.st134{clip-path:url(#SVGID_205_);}
	.st135{clip-path:url(#SVGID_207_);}
	.st136{clip-path:url(#SVGID_209_);}
	.st137{clip-path:url(#SVGID_211_);}
	.st138{clip-path:url(#SVGID_213_);}
	.st139{clip-path:url(#SVGID_215_);}
	.st140{clip-path:url(#SVGID_217_);}
	.st141{clip-path:url(#SVGID_219_);}
	.st142{clip-path:url(#SVGID_221_);}
	.st143{clip-path:url(#SVGID_223_);}
	.st144{clip-path:url(#SVGID_225_);}
	.st145{clip-path:url(#SVGID_227_);}
	.st146{clip-path:url(#SVGID_229_);}
	.st147{clip-path:url(#SVGID_231_);}
	.st148{clip-path:url(#SVGID_233_);}
	.st149{clip-path:url(#SVGID_235_);}
	.st150{clip-path:url(#SVGID_237_);}
	.st151{clip-path:url(#SVGID_239_);}
	.st152{clip-path:url(#SVGID_241_);}
	.st153{clip-path:url(#SVGID_243_);}
	.st154{clip-path:url(#SVGID_245_);}
	.st155{clip-path:url(#SVGID_247_);}
	.st156{clip-path:url(#SVGID_249_);}
	.st157{clip-path:url(#SVGID_251_);}
	.st158{clip-path:url(#SVGID_253_);}
	.st159{clip-path:url(#SVGID_255_);}
	.st160{clip-path:url(#SVGID_257_);}
	.st161{clip-path:url(#SVGID_259_);}
	.st162{clip-path:url(#SVGID_261_);}
	.st163{clip-path:url(#SVGID_263_);}
	.st164{clip-path:url(#SVGID_265_);}
	.st165{clip-path:url(#SVGID_267_);}
	.st166{clip-path:url(#SVGID_269_);}
	.st167{clip-path:url(#SVGID_271_);}
	.st168{clip-path:url(#SVGID_273_);}
	.st169{clip-path:url(#SVGID_275_);}
	.st170{clip-path:url(#SVGID_277_);}
	.st171{clip-path:url(#SVGID_279_);}
	.st172{clip-path:url(#SVGID_281_);}
	.st173{clip-path:url(#SVGID_283_);}
	.st174{opacity:0.1;}
	.st175{opacity:0.4;fill:none;stroke:#0049DA;stroke-width:2;stroke-miterlimit:10;}
	.st176{clip-path:url(#SVGID_285_);}
	.st177{clip-path:url(#SVGID_287_);}
	.st178{fill:none;stroke:#FFFFFF;stroke-width:2;stroke-miterlimit:10;}
	.st179{clip-path:url(#SVGID_291_);}
	.st180{clip-path:url(#SVGID_293_);}
	.st181{clip-path:url(#SVGID_295_);}
	.st182{clip-path:url(#SVGID_297_);}
	.st183{clip-path:url(#SVGID_299_);}
	.st184{clip-path:url(#SVGID_301_);}
	.st185{clip-path:url(#SVGID_303_);}
	.st186{clip-path:url(#SVGID_305_);}
	.st187{clip-path:url(#SVGID_307_);}
	.st188{clip-path:url(#SVGID_309_);}
	.st189{clip-path:url(#SVGID_311_);}
	.st190{clip-path:url(#SVGID_313_);}
	.st191{clip-path:url(#SVGID_315_);}
	.st192{clip-path:url(#SVGID_317_);}
	.st193{clip-path:url(#SVGID_319_);}
	.st194{clip-path:url(#SVGID_321_);}
	.st195{clip-path:url(#SVGID_323_);}
	.st196{clip-path:url(#SVGID_325_);}
	.st197{clip-path:url(#SVGID_327_);}
	.st198{clip-path:url(#SVGID_329_);}
	.st199{clip-path:url(#SVGID_331_);}
	.st200{clip-path:url(#SVGID_333_);}
	.st201{clip-path:url(#SVGID_335_);}
	.st202{clip-path:url(#SVGID_337_);}
	.st203{clip-path:url(#SVGID_339_);}
	.st204{clip-path:url(#SVGID_341_);}
	.st205{clip-path:url(#SVGID_343_);}
	.st206{clip-path:url(#SVGID_345_);}
	.st207{clip-path:url(#SVGID_347_);}
	.st208{clip-path:url(#SVGID_349_);}
	.st209{clip-path:url(#SVGID_351_);}
	.st210{clip-path:url(#SVGID_353_);}
	.st211{clip-path:url(#SVGID_355_);}
	.st212{clip-path:url(#SVGID_357_);}
	.st213{clip-path:url(#SVGID_359_);}
	.st214{clip-path:url(#SVGID_361_);}
	.st215{clip-path:url(#SVGID_363_);}
	.st216{clip-path:url(#SVGID_365_);}
	.st217{clip-path:url(#SVGID_367_);}
	.st218{clip-path:url(#SVGID_369_);}
	.st219{fill:#FFFFFF;stroke:#000000;stroke-width:2;stroke-miterlimit:10;}
	.st220{fill:none;stroke:#000000;stroke-width:2;stroke-miterlimit:10;}
	.st221{fill:#E40027;}
	.st222{clip-path:url(#SVGID_371_);}
	.st223{opacity:0.5;clip-path:url(#SVGID_371_);fill:#0034D6;}
	.st224{opacity:0.2;clip-path:url(#SVGID_371_);}
	.st225{clip-path:url(#SVGID_375_);}
	.st226{clip-path:url(#SVGID_377_);}
	.st227{clip-path:url(#SVGID_379_);}
	.st228{clip-path:url(#SVGID_381_);}
	.st229{clip-path:url(#SVGID_383_);}
	.st230{clip-path:url(#SVGID_385_);}
	.st231{clip-path:url(#SVGID_387_);}
	.st232{clip-path:url(#SVGID_389_);}
	.st233{clip-path:url(#SVGID_391_);}
	.st234{clip-path:url(#SVGID_393_);}
	.st235{clip-path:url(#SVGID_395_);}
	.st236{clip-path:url(#SVGID_397_);}
	.st237{clip-path:url(#SVGID_399_);}
	.st238{clip-path:url(#SVGID_401_);}
	.st239{clip-path:url(#SVGID_403_);}
	.st240{clip-path:url(#SVGID_405_);}
	.st241{clip-path:url(#SVGID_407_);}
	.st242{clip-path:url(#SVGID_409_);}
	.st243{clip-path:url(#SVGID_411_);}
	.st244{clip-path:url(#SVGID_413_);}
	.st245{clip-path:url(#SVGID_415_);}
	.st246{clip-path:url(#SVGID_417_);}
	.st247{clip-path:url(#SVGID_419_);}
	.st248{clip-path:url(#SVGID_421_);}
	.st249{clip-path:url(#SVGID_423_);}
	.st250{clip-path:url(#SVGID_425_);}
	.st251{clip-path:url(#SVGID_427_);}
	.st252{clip-path:url(#SVGID_429_);}
	.st253{clip-path:url(#SVGID_431_);}
	.st254{clip-path:url(#SVGID_433_);}
	.st255{clip-path:url(#SVGID_435_);}
	.st256{clip-path:url(#SVGID_437_);}
	.st257{clip-path:url(#SVGID_439_);}
	.st258{clip-path:url(#SVGID_441_);}
	.st259{clip-path:url(#SVGID_443_);}
	.st260{clip-path:url(#SVGID_445_);}
	.st261{clip-path:url(#SVGID_447_);}
	.st262{clip-path:url(#SVGID_449_);}
	.st263{clip-path:url(#SVGID_451_);}
	.st264{clip-path:url(#SVGID_453_);}
	.st265{clip-path:url(#SVGID_455_);}
	.st266{clip-path:url(#SVGID_457_);}
	.st267{clip-path:url(#SVGID_459_);}
	.st268{clip-path:url(#SVGID_461_);}
	.st269{clip-path:url(#SVGID_463_);}
	.st270{clip-path:url(#SVGID_465_);}
	.st271{clip-path:url(#SVGID_467_);}
	.st272{clip-path:url(#SVGID_469_);}
	.st273{clip-path:url(#SVGID_471_);}
	.st274{clip-path:url(#SVGID_473_);}
	.st275{clip-path:url(#SVGID_475_);}
	.st276{clip-path:url(#SVGID_477_);}
	.st277{clip-path:url(#SVGID_479_);}
	.st278{clip-path:url(#SVGID_481_);}
	.st279{clip-path:url(#SVGID_483_);}
	.st280{clip-path:url(#SVGID_485_);}
	.st281{clip-path:url(#SVGID_487_);}
	.st282{clip-path:url(#SVGID_489_);}
	.st283{clip-path:url(#SVGID_491_);}
	.st284{clip-path:url(#SVGID_493_);}
	.st285{clip-path:url(#SVGID_495_);}
	.st286{clip-path:url(#SVGID_497_);}
	.st287{clip-path:url(#SVGID_499_);}
	.st288{clip-path:url(#SVGID_501_);}
	.st289{clip-path:url(#SVGID_503_);}
	.st290{clip-path:url(#SVGID_505_);}
	.st291{clip-path:url(#SVGID_507_);}
	.st292{clip-path:url(#SVGID_509_);}
	.st293{clip-path:url(#SVGID_511_);}
	.st294{clip-path:url(#SVGID_513_);}
	.st295{clip-path:url(#SVGID_515_);}
	.st296{clip-path:url(#SVGID_517_);}
	.st297{clip-path:url(#SVGID_519_);}
	.st298{clip-path:url(#SVGID_521_);}
	.st299{clip-path:url(#SVGID_523_);}
	.st300{clip-path:url(#SVGID_525_);}
	.st301{clip-path:url(#SVGID_527_);}
	.st302{clip-path:url(#SVGID_529_);}
	.st303{clip-path:url(#SVGID_531_);}
	.st304{fill:#0046F4;}
	.st305{clip-path:url(#SVGID_533_);}
	.st306{clip-path:url(#SVGID_535_);}
	.st307{clip-path:url(#SVGID_537_);}
	.st308{clip-path:url(#SVGID_539_);}
	.st309{clip-path:url(#SVGID_541_);}
	.st310{clip-path:url(#SVGID_543_);}
	.st311{clip-path:url(#SVGID_545_);}
	.st312{clip-path:url(#SVGID_547_);}
	.st313{clip-path:url(#SVGID_549_);}
	.st314{clip-path:url(#SVGID_551_);}
	.st315{clip-path:url(#SVGID_553_);}
	.st316{clip-path:url(#SVGID_555_);}
	.st317{clip-path:url(#SVGID_557_);}
	.st318{clip-path:url(#SVGID_559_);}
	.st319{clip-path:url(#SVGID_561_);}
	.st320{clip-path:url(#SVGID_563_);}
	.st321{clip-path:url(#SVGID_565_);}
	.st322{clip-path:url(#SVGID_567_);}
	.st323{clip-path:url(#SVGID_569_);}
	.st324{clip-path:url(#SVGID_571_);}
	.st325{clip-path:url(#SVGID_573_);}
	.st326{clip-path:url(#SVGID_575_);}
	.st327{clip-path:url(#SVGID_577_);}
	.st328{clip-path:url(#SVGID_579_);}
	.st329{clip-path:url(#SVGID_581_);}
	.st330{clip-path:url(#SVGID_583_);}
	.st331{clip-path:url(#SVGID_585_);}
	.st332{clip-path:url(#SVGID_587_);}
	.st333{clip-path:url(#SVGID_589_);}
	.st334{clip-path:url(#SVGID_591_);}
	.st335{clip-path:url(#SVGID_593_);}
	.st336{clip-path:url(#SVGID_595_);}
	.st337{clip-path:url(#SVGID_597_);}
	.st338{clip-path:url(#SVGID_599_);}
	.st339{clip-path:url(#SVGID_601_);}
	.st340{clip-path:url(#SVGID_603_);}
	.st341{clip-path:url(#SVGID_605_);}
	.st342{clip-path:url(#SVGID_607_);}
	.st343{clip-path:url(#SVGID_609_);}
</style>
<g id="Слой_1">
	<g>
		<defs>
			<rect id="SVGID_91_" x="-1422.6" y="-265.4" width="1280" height="109.9"/>
		</defs>
		<clipPath id="SVGID_2_">
			<use xlink:href="#SVGID_91_"  style="overflow:visible;"/>
		</clipPath>
		<g style="clip-path:url(#SVGID_2_);">
			<defs>
				<rect id="SVGID_93_" x="-1422.1" y="-640.5" width="1278.3" height="573"/>
			</defs>
			<clipPath id="SVGID_4_">
				<use xlink:href="#SVGID_93_"  style="overflow:visible;"/>
			</clipPath>
			<g style="clip-path:url(#SVGID_4_);">
				<defs>
					<rect id="SVGID_95_" x="-1540.9" y="-642.1" width="1536" height="786"/>
				</defs>
				<clipPath id="SVGID_6_">
					<use xlink:href="#SVGID_95_"  style="overflow:visible;"/>
				</clipPath>
				<g style="clip-path:url(#SVGID_6_);">
					
						<image style="overflow:visible;" width="1600" height="900" xlink:href="A99A2D45.jpg"  transform="matrix(1 0 0 1 -1568.7266 -709.7017)">
					</image>
				</g>
			</g>
		</g>
	</g>
	<g class="st61">
		<g>
			<path class="st52" d="M40.7,12.6h1.7l2.1,6.3l2.1-6.3h1.7l1.5,9h-1.6l-1-5.7l-1.9,5.7h-1.5l-1.9-5.7l-1,5.7h-1.7L40.7,12.6z
				 M58.9,12.6h1.7l3.4,9h-1.8l-0.7-1.9H58l-0.7,1.9h-1.8L58.9,12.6z M59.8,15l-1.2,3.1H61L59.8,15z M78.8,14.2l-1.2,1.1
				c-0.8-0.9-1.7-1.3-2.7-1.3c-0.9,0-1.6,0.3-2.2,0.9c-0.6,0.6-0.9,1.3-0.9,2.2c0,0.6,0.1,1.1,0.4,1.6c0.3,0.5,0.6,0.8,1.1,1.1
				c0.5,0.3,1,0.4,1.6,0.4c0.5,0,1-0.1,1.4-0.3c0.4-0.2,0.9-0.5,1.4-1l1.2,1.2c-0.7,0.7-1.3,1.1-1.9,1.4c-0.6,0.2-1.3,0.4-2,0.4
				c-1.4,0-2.5-0.4-3.4-1.3c-0.9-0.9-1.3-2-1.3-3.4c0-0.9,0.2-1.7,0.6-2.4c0.4-0.7,1-1.2,1.7-1.7c0.7-0.4,1.6-0.6,2.4-0.6
				c0.7,0,1.4,0.2,2.1,0.5C77.7,13.2,78.3,13.6,78.8,14.2L78.8,14.2z M85.3,12.6H87v9h-1.7V12.6z M91.3,12.6H93v9h-1.7V12.6z
				 M97.4,12.6H99v9h-1.7V12.6z M105.2,12.6h5v1.7h-1.6v7.3h-1.7v-7.3h-1.6V12.6z M119.2,12.6h1.7l3.5,9h-1.8l-0.7-1.9h-3.7
				l-0.7,1.9h-1.8L119.2,12.6z M120.1,15l-1.2,3.1h2.4L120.1,15z M130.8,21.6v-9h4.7v1.7h-3V16h0.4c0.7,0,1.4,0.1,1.8,0.3
				c0.5,0.2,0.9,0.5,1.2,0.9c0.3,0.5,0.5,1,0.5,1.6c0,0.6-0.1,1.1-0.4,1.5c-0.2,0.4-0.6,0.7-1,0.9c-0.4,0.2-1,0.3-1.7,0.3H130.8z
				 M132.5,17.6V20h0.4c0.8,0,1.3-0.1,1.5-0.3c0.2-0.2,0.3-0.5,0.3-0.8c0-0.9-0.6-1.3-1.9-1.3H132.5z"/>
			<g>
				<path class="st52" d="M0,20L8.6,1.9l0-0.1l0,0l0,0L8.8,2l9.2,4.7l0.3,0.2L30.6,0l0,0l0,0l0,0l0.1,0l0,0v0l2.5,3.1l0,0v0l-1,14.9
					l3.9,11.9l0,0.1l-0.1,0L24.2,29L7.9,32.5l-0.1,0l0,0L0,20L0,20L0,20z M26.2,20.8l-1.5-9.5l-6.4,6.2l0,0.1l-0.1-0.1h0l0,0
					c0,0,0,0,0,0c0,0-0.1,0-0.1-0.1v0l-2.6-2.5l-3.8-3.7l-1.5,9.6l3.2,3.4l0.8-5.2l0-0.1h0.1h0h0l0,0l3.7,4.2L22,19l0,0h0h0h0.1
					l0,0.1l0.8,5.2L26.2,20.8z M24.8,11.3l1.5,9.4l5.6-2.6L24.8,11.3z M26.3,20.9L23,24.5l12.7,5.4L26.3,20.9z M22.9,24.6L22.9,24.6
					l0-0.2L22,19.2l-3.8,4.1l6.1,5.5L35.6,30L22.9,24.6z M18.1,23.4L18.1,23.4l-3.8-4.2l-0.8,5.2l0,0.2l-5.4,7.7l16-3.5L18.1,23.4z
					 M13.4,24.5L10.1,21L8,32.1L13.4,24.5z M10.1,20.5l1.5-9.4l0-0.1L8.8,2.1L8.5,15.3L10.1,20.5z M11.8,11.1l3.6,3.5l2.7,2.6
					L18.3,7L8.9,2.2L11.8,11.1z M18.3,17.2l6.4-6.2l0.1-0.1l0,0l5.8-10.6L23.8,4L18.5,7L18.3,17.2z M7.8,32.2L10,20.8l-1.6-5.5
					l-8.2,4.7L7.8,32.2z M0.3,19.8l8.1-4.6L8.6,2.3L0.3,19.8z M26.4,20.8l9.5,9l-3.8-11.6l0,0L26.4,20.8z M33.1,3.4l-8.2,7.7
					l7.2,6.9L33.1,3.4z M25,10.7l8-7.5l-2.3-3L25,10.7z"/>
				<polygon class="st52" points="26.3,20.8 24.7,11.1 18.2,17.4 11.7,11.1 10.1,20.8 13.5,24.4 14.3,19.1 14.4,19.1 18.2,23.3 
					22.1,19.1 22.1,19.1 22.9,24.4 				"/>
			</g>
		</g>
	</g>
</g>
<g id="Слой_2">
</g>
<g id="Слой_3">
</g>
<g id="Слой_4">
</g>
<g id="Слой_5">
</g>
</svg>
